<svg width="9" height="9" viewBox="0 0 9 9" fill="none" xmlns="http://www.w3.org/2000/svg">
<path d="M1 4.375H0.25M8.5 4.375H7.75M4.375 7.75V8.5M4.375 0.25V1M1.9885 6.7615L1.45825 7.29175M7.29175 1.45825L6.7615 1.9885M1.9885 1.9885L1.45825 1.45825M7.29175 7.29175L6.7615 6.7615M6.625 4.375C6.625 4.97174 6.38795 5.54403 5.96599 5.96599C5.54403 6.38795 4.97174 6.625 4.375 6.625C3.77826 6.625 3.20597 6.38795 2.78401 5.96599C2.36205 5.54403 2.125 4.97174 2.125 4.375C2.125 3.77826 2.36205 3.20597 2.78401 2.78401C3.20597 2.36205 3.77826 2.125 4.375 2.125C4.97174 2.125 5.54403 2.36205 5.96599 2.78401C6.38795 3.20597 6.625 3.77826 6.625 4.375Z" stroke="#FFF2EF" stroke-width="0.5" stroke-miterlimit="10" stroke-linecap="round"/>
</svg>
